<svg width="74" height="70" viewBox="0 0 74 70" fill="none" xmlns="http://www.w3.org/2000/svg">
<path d="M57.5556 53.5294V70H65.7778V53.5294H74L61.6667 41.1765L49.3333 53.5294H57.5556ZM32.8889 0C23.8444 0 16.4444 7.41176 16.4444 16.4706C16.4444 25.5294 23.8444 32.9412 32.8889 32.9412C41.9333 32.9412 49.3333 25.5294 49.3333 16.4706C49.3333 7.41176 41.9333 0 32.8889 0ZM32.8889 41.1765C14.8 41.1765 0 48.5882 0 57.6471V65.8824H39.0556C37.8222 62.5882 37 59.2941 37 55.5882C37 50.6471 38.2333 46.1176 40.7 41.5882C38.2333 41.5882 35.7667 41.1765 32.8889 41.1765Z" fill="#767676"/>
</svg>
